<svg height="100%" stroke-miterlimit="10" style="fill-rule:nonzero;clip-rule:evenodd;stroke-linecap:round;stroke-linejoin:round;" version="1.1" viewBox="0 0 24 24" width="100%" xml:space="preserve" xmlns="http://www.w3.org/2000/svg" xmlnsVectornator="http://vectornator.io" xmlnsXlink="http://www.w3.org/1999/xlink">
<defs/>
<g >
<path d="M4.586 20.414L3.879 21.121L4.586 20.414ZM19.414 20.414L18.707 19.707L19.414 20.414ZM19 10L19 17L21 17L21 10L19 10ZM16 20L8 20L8 22L16 22L16 20ZM5 17L5 10L3 10L3 17L5 17ZM8 20C7.029 20 6.401 19.998 5.939 19.936C5.505 19.877 5.369 19.783 5.293 19.707L3.879 21.121C4.389 21.631 5.017 21.83 5.672 21.918C6.3 22.002 7.085 22 8 22L8 20ZM3 17C3 17.915 2.998 18.701 3.082 19.328C3.17 19.983 3.369 20.612 3.879 21.121L5.293 19.707C5.217 19.631 5.123 19.495 5.064 19.061C5.002 18.6 5 17.971 5 17L3 17ZM19 17C19 17.971 18.998 18.599 18.936 19.061C18.877 19.495 18.783 19.631 18.707 19.707L20.121 21.121C20.631 20.611 20.83 19.983 20.918 19.328C21.002 18.7 21 17.915 21 17L19 17ZM16 22C16.915 22 17.701 22.002 18.328 21.918C18.983 21.83 19.612 21.631 20.121 21.121L18.707 19.707C18.631 19.783 18.495 19.877 18.061 19.936C17.599 19.998 16.971 20 16 20L16 22Z" fill="#ff9f0a" fill-rule="nonzero" opacity="1" stroke="none" />
<path d="M3 11L9.172 4.828C10.505 3.495 11.172 2.828 12 2.828C12.828 2.828 13.495 3.495 14.828 4.828L21 11" fill="none" opacity="1" stroke="#ff9f0a" stroke-linecap="round" stroke-linejoin="miter" stroke-width="2" />
<path d="M9 17C9 16.068 9 15.602 9.152 15.235C9.355 14.7446 9.7446 14.355 10.235 14.152C10.602 14 11.068 14 12 14C12.932 14 13.398 14 13.765 14.152C14.2554 14.355 14.645 14.7446 14.848 15.235C15 15.602 15 16.068 15 17L15 21L9 21L9 17ZM16 4.5C16 4.034 16 3.801 16.076 3.617C16.1777 3.37246 16.3723 3.17826 16.617 3.077C16.801 3 17.034 3 17.5 3C17.966 3 18.199 3 18.383 3.076C18.6275 3.17771 18.8217 3.37227 18.923 3.617C19 3.801 19 4.034 19 4.5L19 10L16 6.5L16 4.5Z" fill="#ff9f0a" fill-rule="nonzero" opacity="1" stroke="none" />
</g>
</svg>
