<svg height="100%" stroke-miterlimit="10" style="fill-rule:nonzero;clip-rule:evenodd;stroke-linecap:round;stroke-linejoin:round;" version="1.1" viewBox="0 0 32 32" width="100%" xmlSpace="preserve" xmlns="http://www.w3.org/2000/svg" xmlnsVectornator="http://vectornator.io" xmlns:xlink="http://www.w3.org/1999/xlink">
<defs/>
<g>
<path d="M16 8C13.2386 8 11 10.2386 11 13C11 15.7614 13.2386 18 16 18C18.7614 18 21 15.7614 21 13C21 10.2386 18.7614 8 16 8ZM16 16C14.3431 16 13 14.6569 13 13C13 11.3431 14.3431 10 16 10C17.6569 10 19 11.3431 19 13C18.9981 14.6561 17.6561 15.9981 16 16Z" fill="#ff9f0a" fill-rule="nonzero" opacity="1" stroke="none" />
<path d="M16 2C8.26801 2 2 8.26801 2 16C2 23.732 8.26801 30 16 30C23.732 30 30 23.732 30 16C29.9913 8.27162 23.7284 2.00871 16 2ZM10 26.3765L10 25C10.0018 23.3439 11.3439 22.0018 13 22L19 22C20.6561 22.0018 21.9982 23.3439 22 25L22 26.3765C18.2929 28.5412 13.7071 28.5412 10 26.3765ZM23.9925 24.9258C23.9511 22.1967 21.7294 20.0047 19 20L13 20C10.2706 20.0047 8.04886 22.1967 8.0075 24.9258C4.29491 21.6108 3.0141 16.348 4.78814 11.6977C6.56218 7.04732 11.0228 3.97483 16 3.97483C20.9772 3.97483 25.4378 7.04732 27.2119 11.6977C28.9859 16.348 27.7051 21.6108 23.9925 24.9258Z" fill="#ff9f0a" fill-rule="nonzero" opacity="1" stroke="none" />
</g>
</svg>