<svg height="100%" stroke-miterlimit="10" style="fill-rule:nonzero;clip-rule:evenodd;stroke-linecap:round;stroke-linejoin:round;" version="1.1" viewBox="0 0 24 24" width="100%" xmlSpace="preserve" xmlns="http://www.w3.org/2000/svg" xmlnsVectornator="http://vectornator.io" xmlnsXlink="http://www.w3.org/1999/xlink">
<defs/>
<g  >
<path d="M0 0L24 0L24 24L0 24L0 0Z" fill="#ffffff" fill-rule="nonzero" opacity="0" stroke="none" />
<g opacity="1" >
<path d="M14.5 10.33L21.17 10.33C21.6284 10.33 22 9.9584 22 9.5C22 5.35786 18.6421 2 14.5 2C14.0416 2 13.67 2.3716 13.67 2.83L13.67 9.5C13.67 9.9584 14.0416 10.33 14.5 10.33Z" fill="#ff9f0a" fill-rule="nonzero" opacity="1" stroke="none" />
<path d="M21.08 12L12.93 12C12.4274 12 12.02 11.5926 12.02 11.09L12.02 2.92C12.0216 2.65764 11.911 2.4071 11.7162 2.23138C11.5214 2.05566 11.2608 1.97148 11 2C5.77995 2.55429 1.87705 7.05051 2.06212 12.2966C2.24719 17.5428 6.45722 21.7528 11.7034 21.9379C16.9495 22.1229 21.4457 18.2201 22 13C22.0225 12.7425 21.9356 12.4874 21.7605 12.2971C21.5855 12.1069 21.3385 11.999 21.08 12Z" fill="#ff9f0a" fill-rule="nonzero" opacity="1" stroke="none" />
</g>
</g>
</svg>
